<svg width="1069" height="166" viewBox="0 0 1069 166" fill="none" xmlns="http://www.w3.org/2000/svg">
<g filter="url(#filter0_d_2_4)">
<path d="M60.032 10.1C57.4253 10.1 54.972 10.6367 52.672 11.71C50.5253 12.63 48.6086 14.24 46.922 16.54C45.2353 18.84 43.932 21.9067 43.012 25.74C42.092 29.5733 41.632 34.3267 41.632 40V46.9H73.832V56.1H41.632V155H20.932V56.1H4.83195V46.9H20.932V40C20.932 32.0267 22.082 25.51 24.382 20.45C26.8353 15.2367 29.902 11.25 33.582 8.48999C37.4153 5.57666 41.7086 3.58333 46.462 2.50999C51.3686 1.43666 56.2753 0.899996 61.182 0.899996C70.6886 0.899996 77.2053 2.05 80.732 4.34999C82.4186 5.57666 83.8753 7.03333 85.102 8.71999C86.3286 10.4067 87.5553 12.4 88.782 14.7L81.882 20.45C77.282 13.55 69.9986 10.1 60.032 10.1ZM95.8922 74.5C95.8922 67.6 94.8955 62.08 92.9022 57.94C91.0622 53.6467 86.6922 51.5 79.7922 51.5H77.4922V46.9H95.8922C101.719 46.9 106.089 47.7433 109.002 49.43C112.069 51.1167 114.216 53.7233 115.442 57.25H116.592C118.892 54.3367 122.342 51.5 126.942 48.74C131.542 45.98 137.292 44.6 144.192 44.6C146.492 44.6 148.946 44.9067 151.552 45.52C154.159 45.98 156.306 46.8233 157.992 48.05C159.679 49.2767 161.136 50.7333 162.362 52.42C163.589 54.1067 164.816 56.1 166.042 58.4L156.842 65.3C155.156 63 152.626 61.3133 149.252 60.24C146.032 59.0133 142.429 58.4 138.442 58.4C133.842 58.4 129.626 59.4733 125.792 61.62C121.959 63.6133 118.892 66.3733 116.592 69.9V155H95.8922V74.5ZM256.587 100.95C256.587 94.3567 255.897 88.2233 254.517 82.55C253.137 76.7233 251.143 71.74 248.537 67.6C246.083 63.3067 243.093 59.9333 239.567 57.48C236.04 55.0267 232.13 53.8 227.837 53.8C223.543 53.8 219.633 55.0267 216.107 57.48C212.58 59.9333 209.513 63.3067 206.907 67.6C204.453 71.74 202.537 76.7233 201.157 82.55C199.777 88.2233 199.087 94.3567 199.087 100.95C199.087 107.543 199.777 113.753 201.157 119.58C202.537 125.253 204.453 130.237 206.907 134.53C209.513 138.67 212.58 141.967 216.107 144.42C219.633 146.873 223.543 148.1 227.837 148.1C232.13 148.1 236.04 146.873 239.567 144.42C243.093 141.967 246.083 138.67 248.537 134.53C251.143 130.237 253.137 125.253 254.517 119.58C255.897 113.753 256.587 107.543 256.587 100.95ZM177.237 100.95C177.237 93.13 178.31 85.8467 180.457 79.1C182.757 72.2 186.053 66.22 190.347 61.16C194.793 56.1 200.083 52.1133 206.217 49.2C212.503 46.1333 219.71 44.6 227.837 44.6C235.81 44.6 242.94 46.1333 249.227 49.2C255.513 52.1133 260.803 56.1 265.097 61.16C269.543 66.22 272.84 72.2 274.987 79.1C277.287 85.8467 278.437 93.13 278.437 100.95C278.437 108.77 277.287 116.13 274.987 123.03C272.84 129.777 269.543 135.68 265.097 140.74C260.803 145.8 255.513 149.863 249.227 152.93C242.94 155.843 235.81 157.3 227.837 157.3C219.71 157.3 212.503 155.843 206.217 152.93C200.083 149.863 194.793 145.8 190.347 140.74C186.053 135.68 182.757 129.777 180.457 123.03C178.31 116.13 177.237 108.77 177.237 100.95ZM388.67 46.9L326.57 145.8H388.67V155H298.97V150.63L358.77 56.1H332.32C322.506 56.1 315.223 57.94 310.47 61.62C305.87 65.3 303.57 70.36 303.57 76.8H298.97V65.3C298.97 63 299.2 60.7767 299.66 58.63C300.273 56.33 301.27 54.3367 302.65 52.65C304.183 50.9633 306.176 49.5833 308.63 48.51C311.236 47.4367 314.533 46.9 318.52 46.9H388.67ZM496.081 104.4H426.391C426.391 110.687 427.081 116.513 428.461 121.88C429.841 127.247 431.835 131.923 434.441 135.91C437.201 139.743 440.498 142.733 444.331 144.88C448.165 147.027 452.535 148.1 457.441 148.1C464.955 148.1 471.165 146.49 476.071 143.27C481.131 140.05 485.655 135.527 489.641 129.7L494.241 133.15C489.028 141.89 482.971 148.1 476.071 151.78C469.325 155.46 461.581 157.3 452.841 157.3C444.715 157.3 437.661 155.843 431.681 152.93C425.701 149.863 420.641 145.8 416.501 140.74C412.515 135.68 409.525 129.777 407.531 123.03C405.538 116.13 404.541 108.77 404.541 100.95C404.541 93.13 405.538 85.8467 407.531 79.1C409.678 72.2 412.745 66.22 416.731 61.16C420.718 56.1 425.548 52.1133 431.221 49.2C436.895 46.1333 443.335 44.6 450.541 44.6C466.181 44.6 477.758 48.97 485.271 57.71C492.785 66.45 496.541 78.9467 496.541 95.2L496.081 104.4ZM474.691 95.2C474.691 81.86 472.698 71.6633 468.711 64.61C464.725 57.4033 458.668 53.8 450.541 53.8C447.015 53.8 443.795 54.8733 440.881 57.02C437.968 59.0133 435.438 61.85 433.291 65.53C431.145 69.21 429.458 73.58 428.231 78.64C427.005 83.7 426.391 89.22 426.391 95.2H474.691ZM526.506 74.5C526.506 67.6 525.509 62.08 523.516 57.94C521.676 53.6467 517.306 51.5 510.406 51.5H505.806V46.9H526.506C532.333 46.9 536.703 47.7433 539.616 49.43C542.683 50.9633 544.829 53.1867 546.056 56.1H547.206C550.119 53.1867 554.106 50.58 559.166 48.28C564.226 45.8267 570.206 44.6 577.106 44.6C582.013 44.6 586.766 45.2133 591.366 46.44C596.119 47.5133 600.336 49.66 604.016 52.88C607.696 55.9467 610.609 60.1633 612.756 65.53C615.056 70.8967 616.206 77.72 616.206 86V155H595.506V86C595.506 80.3267 594.739 75.4967 593.206 71.51C591.826 67.5233 589.909 64.3033 587.456 61.85C585.156 59.3967 582.473 57.6333 579.406 56.56C576.493 55.4867 573.426 54.95 570.206 54.95C565.606 54.95 561.313 56.1767 557.326 58.63C553.493 61.0833 550.119 63.92 547.206 67.14V155H526.506V74.5ZM714.864 60.7C711.337 59.0133 707.657 57.48 703.824 56.1C700.144 54.5667 696.54 53.8 693.014 53.8C687.8 53.8 683.354 55.0267 679.674 57.48C676.147 59.9333 673.234 63.3067 670.934 67.6C668.634 71.74 666.947 76.7233 665.874 82.55C664.8 88.2233 664.264 94.3567 664.264 100.95C664.264 107.543 664.724 113.753 665.644 119.58C666.717 125.253 668.327 130.237 670.474 134.53C672.774 138.67 675.534 141.967 678.754 144.42C682.127 146.873 686.114 148.1 690.714 148.1C694.087 148.1 697 147.717 699.454 146.95C702.06 146.183 704.284 145.187 706.124 143.96C708.117 142.58 709.727 141.047 710.954 139.36C712.334 137.673 713.637 135.987 714.864 134.3V60.7ZM735.564 155H724.064L716.014 144.65H714.864C713.637 146.03 712.18 147.487 710.494 149.02C708.96 150.553 706.967 151.933 704.514 153.16C702.06 154.387 699.147 155.383 695.774 156.15C692.4 156.917 688.414 157.3 683.814 157.3C676.914 157.3 670.857 155.843 665.644 152.93C660.43 149.863 656.06 145.8 652.534 140.74C649.16 135.68 646.63 129.777 644.944 123.03C643.257 116.13 642.414 108.77 642.414 100.95C642.414 93.13 643.257 85.8467 644.944 79.1C646.784 72.2 649.467 66.22 652.994 61.16C656.674 56.1 661.197 52.1133 666.564 49.2C672.084 46.1333 678.6 44.6 686.114 44.6C692.554 44.6 698.074 45.3667 702.674 46.9C707.274 48.28 711.337 49.8133 714.864 51.5V30.8C714.864 23.9 713.867 18.38 711.874 14.24C710.034 9.94666 705.664 7.79999 698.764 7.79999H694.164V3.19999H714.864C718.85 3.19999 722.147 3.58333 724.754 4.34999C727.514 4.96333 729.66 6.34333 731.194 8.48999C732.88 10.4833 734.03 13.32 734.644 17C735.257 20.5267 735.564 25.1267 735.564 30.8V155ZM826.739 102.1H819.839C808.339 102.1 799.292 104.247 792.699 108.54C786.259 112.68 783.039 118.2 783.039 125.1C783.039 128.78 783.652 132 784.879 134.76C786.105 137.52 787.715 139.82 789.709 141.66C791.702 143.5 794.002 144.88 796.609 145.8C799.215 146.567 801.975 146.95 804.889 146.95C810.562 146.95 815.009 145.57 818.229 142.81C821.602 139.897 824.439 136.677 826.739 133.15V102.1ZM835.939 155L827.889 144.65H826.739C824.439 147.563 820.682 150.4 815.469 153.16C810.255 155.92 803.279 157.3 794.539 157.3C791.319 157.3 787.792 156.763 783.959 155.69C780.125 154.77 776.522 153.083 773.149 150.63C769.775 148.177 766.939 144.88 764.639 140.74C762.339 136.6 761.189 131.387 761.189 125.1C761.189 118.813 762.799 113.6 766.019 109.46C769.239 105.32 773.532 102.023 778.899 99.57C784.265 97.1167 790.475 95.43 797.529 94.51C804.582 93.4367 812.019 92.9 819.839 92.9H826.739C826.739 84.9267 826.125 78.41 824.899 73.35C823.672 68.1367 821.985 64.15 819.839 61.39C817.692 58.4767 815.085 56.4833 812.019 55.41C809.105 54.3367 805.962 53.8 802.589 53.8C796.149 53.8 790.705 55.18 786.259 57.94C781.965 60.7 778.975 65.8367 777.289 73.35H766.939C766.939 69.3633 767.169 65.6833 767.629 62.31C768.089 58.7833 769.775 55.5633 772.689 52.65C774.069 51.27 775.985 50.0433 778.439 48.97C781.045 47.8967 783.882 47.0533 786.949 46.44C790.015 45.8267 793.235 45.3667 796.609 45.06C800.135 44.7533 803.662 44.6 807.189 44.6C812.402 44.6 817.385 45.2133 822.139 46.44C827.045 47.5133 831.339 49.8133 835.019 53.34C838.852 56.7133 841.842 61.62 843.989 68.06C846.289 74.3467 847.439 82.6267 847.439 92.9V155H835.939ZM881.351 74.5C881.351 67.6 880.355 62.08 878.361 57.94C876.521 53.6467 872.151 51.5 865.251 51.5H862.951V46.9H881.351C887.178 46.9 891.548 47.7433 894.461 49.43C897.528 51.1167 899.675 53.7233 900.901 57.25H902.051C904.351 54.3367 907.801 51.5 912.401 48.74C917.001 45.98 922.751 44.6 929.651 44.6C931.951 44.6 934.405 44.9067 937.011 45.52C939.618 45.98 941.765 46.8233 943.451 48.05C945.138 49.2767 946.595 50.7333 947.821 52.42C949.048 54.1067 950.275 56.1 951.501 58.4L942.301 65.3C940.615 63 938.085 61.3133 934.711 60.24C931.491 59.0133 927.888 58.4 923.901 58.4C919.301 58.4 915.085 59.4733 911.251 61.62C907.418 63.6133 904.351 66.3733 902.051 69.9V155H881.351V74.5ZM991.627 98.65L1020.38 61.85C1023.9 57.4033 1027.89 53.8 1032.34 51.04C1036.78 48.28 1042.76 46.9 1050.28 46.9H1057.18V52.65C1053.19 52.65 1049.28 53.4933 1045.45 55.18C1041.61 56.8667 1038.24 59.4733 1035.33 63L1010.03 95.2L1038.78 132C1043.22 137.827 1047.36 142.197 1051.2 145.11C1055.18 148.023 1059.48 149.863 1064.08 150.63V155C1062.85 155.613 1061.16 156.15 1059.02 156.61C1057.02 157.07 1054.88 157.3 1052.58 157.3C1046.75 157.3 1041 155.997 1035.33 153.39C1029.81 150.63 1024.44 145.8 1019.23 138.9L991.627 102.1V155H970.927V30.8C970.927 23.9 969.931 18.38 967.937 14.24C966.097 9.94666 961.727 7.79999 954.827 7.79999H950.227V3.19999H970.927C974.914 3.19999 978.211 3.58333 980.817 4.34999C983.577 4.96333 985.724 6.34333 987.257 8.48999C988.944 10.4833 990.094 13.32 990.707 17C991.321 20.5267 991.627 25.1267 991.627 30.8V98.65Z" fill="#114575" fill-opacity="0.92" shape-rendering="crispEdges"/>
</g>
<defs>
<filter id="filter0_d_2_4" x="0.83194" y="0.899994" width="1067.25" height="164.4" filterUnits="userSpaceOnUse" color-interpolation-filters="sRGB">
<feFlood flood-opacity="0" result="BackgroundImageFix"/>
<feColorMatrix in="SourceAlpha" type="matrix" values="0 0 0 0 0 0 0 0 0 0 0 0 0 0 0 0 0 0 127 0" result="hardAlpha"/>
<feOffset dy="4"/>
<feGaussianBlur stdDeviation="2"/>
<feComposite in2="hardAlpha" operator="out"/>
<feColorMatrix type="matrix" values="0 0 0 0 0 0 0 0 0 0 0 0 0 0 0 0 0 0 0.25 0"/>
<feBlend mode="normal" in2="BackgroundImageFix" result="effect1_dropShadow_2_4"/>
<feBlend mode="normal" in="SourceGraphic" in2="effect1_dropShadow_2_4" result="shape"/>
</filter>
</defs>
</svg>
